<svg width="75" height="94" viewBox="0 0 75 94" fill="none" xmlns="http://www.w3.org/2000/svg">
<rect width="75" height="75" rx="18.75" fill="#101010"/>
<path fill-rule="evenodd" clip-rule="evenodd" d="M38.8211 93.7811C50.6852 85.5363 58.4519 71.8079 58.4519 56.2656C58.4519 40.7232 50.6852 26.9949 38.8211 18.75C26.9571 26.9949 19.1903 40.7232 19.1903 56.2656C19.1903 71.8079 26.9571 85.5363 38.8211 93.7811Z" fill="#101010" fill-opacity="0.2"/>
<mask id="path-3-inside-1_305_1878" fill="white">
<path fill-rule="evenodd" clip-rule="evenodd" d="M36.1308 93.7812C47.9949 85.5363 55.7617 71.808 55.7617 56.2656C55.7617 40.7232 47.9949 26.9949 36.1308 18.75C24.2668 26.9949 16.5 40.7232 16.5 56.2656C16.5 71.808 24.2668 85.5363 36.1308 93.7812Z"/>
</mask>
<path fill-rule="evenodd" clip-rule="evenodd" d="M36.1308 93.7812C47.9949 85.5363 55.7617 71.808 55.7617 56.2656C55.7617 40.7232 47.9949 26.9949 36.1308 18.75C24.2668 26.9949 16.5 40.7232 16.5 56.2656C16.5 71.808 24.2668 85.5363 36.1308 93.7812Z" fill="#3E7A02"/>
<path d="M36.1308 93.7812L35.5958 94.551L36.1308 94.9228L36.6658 94.551L36.1308 93.7812ZM36.1308 18.75L36.6658 17.9801L36.1308 17.6083L35.5958 17.9801L36.1308 18.75ZM54.8242 56.2656C54.8242 71.488 47.2186 84.9342 35.5958 93.0113L36.6658 94.551C48.7713 86.1384 56.6992 72.1279 56.6992 56.2656H54.8242ZM35.5958 19.5199C47.2186 27.597 54.8242 41.0432 54.8242 56.2656H56.6992C56.6992 40.4032 48.7713 26.3927 36.6658 17.9801L35.5958 19.5199ZM17.4375 56.2656C17.4375 41.0432 25.0431 27.597 36.6658 19.5199L35.5958 17.9801C23.4904 26.3927 15.5625 40.4032 15.5625 56.2656H17.4375ZM36.6658 93.0113C25.0431 84.9342 17.4375 71.488 17.4375 56.2656H15.5625C15.5625 72.1279 23.4904 86.1384 35.5958 94.551L36.6658 93.0113Z" fill="#101010" mask="url(#path-3-inside-1_305_1878)"/>
<path d="M36.1875 20.4375L36.9994 92.0156H35.3756L36.1875 20.4375Z" fill="#101010"/>
<path fill-rule="evenodd" clip-rule="evenodd" d="M35.7183 93.402C47.2997 85.1215 54.8485 71.562 54.8485 56.2393C54.8485 41.1182 47.4971 27.7141 36.1733 19.4061L35.7183 93.402Z" fill="#101010" fill-opacity="0.3"/>
<path d="M26.8435 36.6224C23.137 43.5493 20.0877 51.3101 19.6094 51.0542C19.6094 51.0542 20.8479 42.9655 24.5543 36.0386C28.2607 29.1117 34.0949 24.2727 34.0949 24.2727C34.5732 24.5286 30.5499 29.6955 26.8435 36.6224Z" fill="#FDFDFD"/>
</svg>
